<svg width="18" height="22" viewBox="0 0 18 22" fill="none" xmlns="http://www.w3.org/2000/svg">
<g id="Frame" clip-path="url(#clip0_1_2599)">
<path id="Vector" d="M13 10C13 11.0609 12.5786 12.0783 11.8284 12.8284C11.0783 13.5786 10.0609 14 9 14C7.93913 14 6.92172 13.5786 6.17157 12.8284C5.42142 12.0783 5 11.0609 5 10V5C5 3.93913 5.42142 2.92173 6.17157 2.17159C6.92172 1.42144 7.93913 1 9 1C10.0609 1 11.0783 1.42144 11.8284 2.17159C12.5786 2.92173 13 3.93913 13 5V10Z" stroke="#131316" stroke-width="2" stroke-miterlimit="10"/>
<path id="Vector_2" d="M17 10C17 12.1217 16.1572 14.1566 14.6569 15.6569C13.1566 17.1572 11.1217 18 9 18C6.87827 18 4.84346 17.1572 3.34317 15.6569C1.84288 14.1566 1 12.1217 1 10" stroke="#131316" stroke-width="2" stroke-linecap="round" stroke-linejoin="round"/>
<path id="Vector_3" d="M9 18V21" stroke="#131316" stroke-width="2" stroke-linecap="round" stroke-linejoin="round"/>
</g>
<defs>
<clipPath id="clip0_1_2599">
<rect width="18" height="22" fill="white"/>
</clipPath>
</defs>
</svg>
