<svg width="22" height="22" viewBox="0 0 22 22" fill="none" xmlns="http://www.w3.org/2000/svg">
<g id="Frame" clip-path="url(#clip0_1_2382)">
<path id="Vector" d="M19.8524 12.2856V16.3414C19.8524 17.417 19.4251 18.4486 18.6645 19.2092C17.9039 19.9698 16.8723 20.3971 15.7967 20.3971H5.65731C4.58166 20.3971 3.55006 19.9698 2.78946 19.2092C2.02886 18.4486 1.60156 17.417 1.60156 16.3414V6.20199C1.60156 5.12634 2.02886 4.09475 2.78946 3.33415C3.55006 2.57355 4.58166 2.14624 5.65731 2.14624H9.71306" stroke="#131316" stroke-width="1.5" stroke-linecap="round" stroke-linejoin="round"/>
<path id="Vector_2" d="M15.742 2.65312L7.6835 10.7031V14.3069H11.2873L19.3459 6.24836C19.5054 6.08898 19.632 5.89971 19.7183 5.69137C19.8047 5.48304 19.8492 5.25973 19.8492 5.03421C19.8492 4.80868 19.8047 4.58537 19.7183 4.37704C19.632 4.16871 19.5054 3.97945 19.3459 3.82007L18.1617 2.64453C17.8391 2.32604 17.4035 2.14818 16.9501 2.14979C16.4967 2.1514 16.0624 2.33235 15.742 2.65312Z" stroke="#131316" stroke-width="1.5" stroke-linecap="round" stroke-linejoin="round"/>
<path id="Vector_3" d="M16.8074 8.22992L13.7656 5.18811" stroke="#131316" stroke-width="1.5" stroke-miterlimit="10" stroke-linecap="round"/>
</g>
<defs>
<clipPath id="clip0_1_2382">
<rect width="21.2927" height="21.2927" fill="white" transform="translate(0.585938 0.118408)"/>
</clipPath>
</defs>
</svg>
